<svg width="20" height="20" viewBox="0 0 20 20" fill="none" xmlns="http://www.w3.org/2000/svg">
<g clip-path="url(#clip0_853_742)">
<path d="M9.99996 12.5C11.3807 12.5 12.5 11.3807 12.5 10C12.5 8.61931 11.3807 7.50002 9.99996 7.50002C8.61925 7.50002 7.49996 8.61931 7.49996 10C7.49996 11.3807 8.61925 12.5 9.99996 12.5Z" stroke="#667085" stroke-width="1.66667" stroke-linecap="round" stroke-linejoin="round"/>
<path d="M15.606 12.2727C15.5052 12.5012 15.4751 12.7547 15.5197 13.0005C15.5642 13.2462 15.6814 13.473 15.856 13.6515L15.9015 13.697C16.0423 13.8377 16.1541 14.0048 16.2304 14.1887C16.3066 14.3727 16.3458 14.5698 16.3458 14.769C16.3458 14.9681 16.3066 15.1652 16.2304 15.3492C16.1541 15.5331 16.0423 15.7002 15.9015 15.8409C15.7608 15.9818 15.5937 16.0936 15.4097 16.1698C15.2258 16.2461 15.0286 16.2853 14.8295 16.2853C14.6304 16.2853 14.4332 16.2461 14.2493 16.1698C14.0654 16.0936 13.8983 15.9818 13.7575 15.8409L13.7121 15.7955C13.5335 15.6208 13.3068 15.5037 13.061 15.4591C12.8153 15.4145 12.5618 15.4446 12.3333 15.5455C12.1092 15.6415 11.9181 15.801 11.7835 16.0042C11.6489 16.2075 11.5767 16.4456 11.5757 16.6894V16.8182C11.5757 17.22 11.4161 17.6054 11.1319 17.8896C10.8478 18.1737 10.4624 18.3334 10.0606 18.3334C9.65872 18.3334 9.27334 18.1737 8.98919 17.8896C8.70505 17.6054 8.54541 17.22 8.54541 16.8182V16.75C8.53955 16.4993 8.45838 16.2561 8.31247 16.0521C8.16655 15.8481 7.96264 15.6927 7.72723 15.6061C7.49874 15.5052 7.24527 15.4752 6.99951 15.5197C6.75376 15.5643 6.52699 15.6814 6.34844 15.8561L6.30299 15.9015C6.16227 16.0424 5.99517 16.1542 5.81123 16.2304C5.6273 16.3067 5.43013 16.3459 5.23102 16.3459C5.03191 16.3459 4.83474 16.3067 4.65081 16.2304C4.46687 16.1542 4.29977 16.0424 4.15905 15.9015C4.01818 15.7608 3.90642 15.5937 3.83017 15.4098C3.75392 15.2258 3.71468 15.0287 3.71468 14.8296C3.71468 14.6305 3.75392 14.4333 3.83017 14.2494C3.90642 14.0654 4.01818 13.8983 4.15905 13.7576L4.2045 13.7121C4.37915 13.5336 4.49631 13.3068 4.54087 13.0611C4.58543 12.8153 4.55535 12.5619 4.4545 12.3334C4.35847 12.1093 4.19902 11.9182 3.99577 11.7836C3.79252 11.649 3.55434 11.5768 3.31057 11.5758H3.18178C2.77993 11.5758 2.39455 11.4161 2.1104 11.132C1.82626 10.8479 1.66663 10.4625 1.66663 10.0606C1.66663 9.65878 1.82626 9.2734 2.1104 8.98925C2.39455 8.70511 2.77993 8.54548 3.18178 8.54548H3.24996C3.50071 8.53961 3.7439 8.45844 3.94791 8.31253C4.15192 8.16661 4.30732 7.9627 4.3939 7.72729C4.49474 7.4988 4.52483 7.24533 4.48027 6.99957C4.43571 6.75382 4.31855 6.52705 4.1439 6.34851L4.09844 6.30305C3.95757 6.16233 3.84581 5.99523 3.76957 5.81129C3.69332 5.62736 3.65407 5.4302 3.65407 5.23108C3.65407 5.03197 3.69332 4.83481 3.76957 4.65087C3.84581 4.46693 3.95757 4.29983 4.09844 4.15911C4.23916 4.01824 4.40627 3.90648 4.5902 3.83023C4.77414 3.75398 4.9713 3.71474 5.17041 3.71474C5.36953 3.71474 5.56669 3.75398 5.75063 3.83023C5.93456 3.90648 6.10167 4.01824 6.24238 4.15911L6.28784 4.20457C6.46638 4.37922 6.69315 4.49637 6.93891 4.54093C7.18466 4.58549 7.43813 4.55541 7.66663 4.45457H7.72723C7.9513 4.35853 8.1424 4.19908 8.277 3.99583C8.4116 3.79258 8.48384 3.5544 8.48481 3.31063V3.18184C8.48481 2.78 8.64444 2.39461 8.92859 2.11046C9.21273 1.82632 9.59812 1.66669 9.99996 1.66669C10.4018 1.66669 10.7872 1.82632 11.0713 2.11046C11.3555 2.39461 11.5151 2.78 11.5151 3.18184V3.25002C11.5161 3.4938 11.5883 3.73197 11.7229 3.93522C11.8575 4.13847 12.0486 4.29793 12.2727 4.39396C12.5012 4.4948 12.7547 4.52489 13.0004 4.48033C13.2462 4.43577 13.4729 4.31861 13.6515 4.14396L13.6969 4.09851C13.8376 3.95763 14.0048 3.84588 14.1887 3.76963C14.3726 3.69338 14.5698 3.65413 14.7689 3.65413C14.968 3.65413 15.1652 3.69338 15.3491 3.76963C15.533 3.84588 15.7002 3.95763 15.8409 4.09851C15.9817 4.23922 16.0935 4.40633 16.1697 4.59026C16.246 4.7742 16.2852 4.97136 16.2852 5.17048C16.2852 5.36959 16.246 5.56675 16.1697 5.75069C16.0935 5.93462 15.9817 6.10173 15.8409 6.24244L15.7954 6.2879C15.6208 6.46644 15.5036 6.69321 15.459 6.93897C15.4145 7.18472 15.4446 7.43819 15.5454 7.66669V7.72729C15.6414 7.95136 15.8009 8.14246 16.0042 8.27706C16.2074 8.41166 16.4456 8.4839 16.6894 8.48487H16.8181C17.22 8.48487 17.6054 8.6445 17.8895 8.92865C18.1737 9.21279 18.3333 9.59818 18.3333 10C18.3333 10.4019 18.1737 10.7872 17.8895 11.0714C17.6054 11.3555 17.22 11.5152 16.8181 11.5152H16.75C16.5062 11.5161 16.268 11.5884 16.0648 11.723C15.8615 11.8576 15.7021 12.0487 15.606 12.2727Z" stroke="#667085" stroke-width="1.66667" stroke-linecap="round" stroke-linejoin="round"/>
</g>
<defs>
<clipPath id="clip0_853_742">
<rect width="20" height="20" fill="white"/>
</clipPath>
</defs>
</svg>
